<mxfile host="app.diagrams.net" agent="Mozilla/5.0 (Macintosh; Intel Mac OS X 10_15_7) AppleWebKit/537.36 (KHTML, like Gecko) Chrome/136.0.0.0 Safari/537.36" version="27.1.4">
  <diagram id="C5RBs43oDa-KdzZeNtuy" name="Page-1">
    <mxGraphModel dx="688" dy="554" grid="1" gridSize="10" guides="1" tooltips="1" connect="1" arrows="1" fold="1" page="1" pageScale="1" pageWidth="827" pageHeight="1169" math="0" shadow="0">
      <root>
        <mxCell id="WIyWlLk6GJQsqaUBKTNV-0" />
        <mxCell id="WIyWlLk6GJQsqaUBKTNV-1" parent="WIyWlLk6GJQsqaUBKTNV-0" />
        <mxCell id="p-kOWp8Kr_RvIh3Eu6UM-2" style="edgeStyle=orthogonalEdgeStyle;rounded=0;orthogonalLoop=1;jettySize=auto;html=1;" parent="WIyWlLk6GJQsqaUBKTNV-1" source="p-kOWp8Kr_RvIh3Eu6UM-0" target="p-kOWp8Kr_RvIh3Eu6UM-5" edge="1">
          <mxGeometry relative="1" as="geometry">
            <mxPoint x="410" y="160" as="targetPoint" />
          </mxGeometry>
        </mxCell>
        <mxCell id="p-kOWp8Kr_RvIh3Eu6UM-0" value="Start" style="ellipse;whiteSpace=wrap;html=1;" parent="WIyWlLk6GJQsqaUBKTNV-1" vertex="1">
          <mxGeometry x="350" y="30" width="120" height="80" as="geometry" />
        </mxCell>
        <mxCell id="p-kOWp8Kr_RvIh3Eu6UM-6" style="edgeStyle=orthogonalEdgeStyle;rounded=0;orthogonalLoop=1;jettySize=auto;html=1;exitX=0;exitY=0.5;exitDx=0;exitDy=0;entryX=0;entryY=0.5;entryDx=0;entryDy=0;" parent="WIyWlLk6GJQsqaUBKTNV-1" source="p-kOWp8Kr_RvIh3Eu6UM-5" target="p-kOWp8Kr_RvIh3Eu6UM-16" edge="1">
          <mxGeometry relative="1" as="geometry">
            <mxPoint x="320" y="340" as="targetPoint" />
            <mxPoint x="307.5" y="210" as="sourcePoint" />
          </mxGeometry>
        </mxCell>
        <mxCell id="p-kOWp8Kr_RvIh3Eu6UM-12" style="edgeStyle=orthogonalEdgeStyle;rounded=0;orthogonalLoop=1;jettySize=auto;html=1;" parent="WIyWlLk6GJQsqaUBKTNV-1" source="p-kOWp8Kr_RvIh3Eu6UM-5" target="p-kOWp8Kr_RvIh3Eu6UM-17" edge="1">
          <mxGeometry relative="1" as="geometry">
            <mxPoint x="620" y="420.0000000000001" as="targetPoint" />
          </mxGeometry>
        </mxCell>
        <mxCell id="p-kOWp8Kr_RvIh3Eu6UM-5" value="&lt;font style=&quot;font-size: 9px;&quot;&gt;Do you want to move&lt;/font&gt;&lt;div&gt;&lt;font style=&quot;font-size: 9px;&quot;&gt;&amp;nbsp;towards the east or pick up the diagnostic tool?&lt;/font&gt;&lt;/div&gt;" style="rhombus;whiteSpace=wrap;html=1;" parent="WIyWlLk6GJQsqaUBKTNV-1" vertex="1">
          <mxGeometry x="327.5" y="150" width="165" height="120" as="geometry" />
        </mxCell>
        <mxCell id="p-kOWp8Kr_RvIh3Eu6UM-9" value="East" style="text;html=1;align=center;verticalAlign=middle;whiteSpace=wrap;rounded=0;" parent="WIyWlLk6GJQsqaUBKTNV-1" vertex="1">
          <mxGeometry x="240" y="250" width="60" height="30" as="geometry" />
        </mxCell>
        <mxCell id="p-kOWp8Kr_RvIh3Eu6UM-22" style="edgeStyle=orthogonalEdgeStyle;rounded=0;orthogonalLoop=1;jettySize=auto;html=1;" parent="WIyWlLk6GJQsqaUBKTNV-1" source="p-kOWp8Kr_RvIh3Eu6UM-11" target="p-kOWp8Kr_RvIh3Eu6UM-21" edge="1">
          <mxGeometry relative="1" as="geometry">
            <Array as="points">
              <mxPoint x="210" y="510" />
              <mxPoint x="390" y="510" />
            </Array>
          </mxGeometry>
        </mxCell>
        <mxCell id="p-kOWp8Kr_RvIh3Eu6UM-11" value="Player encounters the drone" style="rounded=0;whiteSpace=wrap;html=1;" parent="WIyWlLk6GJQsqaUBKTNV-1" vertex="1">
          <mxGeometry x="150" y="420" width="120" height="60" as="geometry" />
        </mxCell>
        <mxCell id="p-kOWp8Kr_RvIh3Eu6UM-13" value="Picking up the diagnostic tool" style="text;html=1;align=center;verticalAlign=middle;whiteSpace=wrap;rounded=0;" parent="WIyWlLk6GJQsqaUBKTNV-1" vertex="1">
          <mxGeometry x="630" y="250" width="60" height="30" as="geometry" />
        </mxCell>
        <mxCell id="p-kOWp8Kr_RvIh3Eu6UM-19" style="edgeStyle=orthogonalEdgeStyle;rounded=0;orthogonalLoop=1;jettySize=auto;html=1;entryX=1;entryY=0.5;entryDx=0;entryDy=0;" parent="WIyWlLk6GJQsqaUBKTNV-1" source="p-kOWp8Kr_RvIh3Eu6UM-14" target="p-kOWp8Kr_RvIh3Eu6UM-16" edge="1">
          <mxGeometry relative="1" as="geometry" />
        </mxCell>
        <mxCell id="p-kOWp8Kr_RvIh3Eu6UM-14" value="Player picks up the diagnostic tool" style="rounded=0;whiteSpace=wrap;html=1;" parent="WIyWlLk6GJQsqaUBKTNV-1" vertex="1">
          <mxGeometry x="550" y="460" width="120" height="60" as="geometry" />
        </mxCell>
        <mxCell id="p-kOWp8Kr_RvIh3Eu6UM-20" style="edgeStyle=orthogonalEdgeStyle;rounded=0;orthogonalLoop=1;jettySize=auto;html=1;" parent="WIyWlLk6GJQsqaUBKTNV-1" source="p-kOWp8Kr_RvIh3Eu6UM-16" target="p-kOWp8Kr_RvIh3Eu6UM-11" edge="1">
          <mxGeometry relative="1" as="geometry">
            <Array as="points">
              <mxPoint x="210" y="350" />
            </Array>
          </mxGeometry>
        </mxCell>
        <mxCell id="p-kOWp8Kr_RvIh3Eu6UM-16" value="Player begins moving towards the East" style="rounded=0;whiteSpace=wrap;html=1;" parent="WIyWlLk6GJQsqaUBKTNV-1" vertex="1">
          <mxGeometry x="354" y="300" width="120" height="60" as="geometry" />
        </mxCell>
        <mxCell id="p-kOWp8Kr_RvIh3Eu6UM-18" style="edgeStyle=orthogonalEdgeStyle;rounded=0;orthogonalLoop=1;jettySize=auto;html=1;entryX=0.5;entryY=0;entryDx=0;entryDy=0;" parent="WIyWlLk6GJQsqaUBKTNV-1" source="p-kOWp8Kr_RvIh3Eu6UM-17" target="p-kOWp8Kr_RvIh3Eu6UM-14" edge="1">
          <mxGeometry relative="1" as="geometry" />
        </mxCell>
        <mxCell id="p-kOWp8Kr_RvIh3Eu6UM-17" value="diagnostic&amp;nbsp;&lt;span style=&quot;background-color: transparent; color: light-dark(rgb(0, 0, 0), rgb(255, 255, 255));&quot;&gt;tool&amp;nbsp;&lt;/span&gt;&lt;div&gt;&lt;span style=&quot;background-color: transparent; color: light-dark(rgb(0, 0, 0), rgb(255, 255, 255));&quot;&gt;added into player&#39;s inventory&amp;nbsp;&lt;/span&gt;&lt;div&gt;and +10 score&lt;/div&gt;&lt;/div&gt;" style="shape=parallelogram;perimeter=parallelogramPerimeter;whiteSpace=wrap;html=1;fixedSize=1;" parent="WIyWlLk6GJQsqaUBKTNV-1" vertex="1">
          <mxGeometry x="540" y="330" width="140" height="80" as="geometry" />
        </mxCell>
        <mxCell id="p-kOWp8Kr_RvIh3Eu6UM-24" style="edgeStyle=orthogonalEdgeStyle;rounded=0;orthogonalLoop=1;jettySize=auto;html=1;" parent="WIyWlLk6GJQsqaUBKTNV-1" source="p-kOWp8Kr_RvIh3Eu6UM-21" target="p-kOWp8Kr_RvIh3Eu6UM-23" edge="1">
          <mxGeometry relative="1" as="geometry" />
        </mxCell>
        <mxCell id="p-kOWp8Kr_RvIh3Eu6UM-21" value="drone shocks&amp;nbsp;&lt;div&gt;the player and&amp;nbsp;&lt;/div&gt;&lt;div&gt;breaks down,&amp;nbsp;&lt;/div&gt;&lt;div&gt;and won&#39;t let you pass&lt;/div&gt;" style="shape=parallelogram;perimeter=parallelogramPerimeter;whiteSpace=wrap;html=1;fixedSize=1;" parent="WIyWlLk6GJQsqaUBKTNV-1" vertex="1">
          <mxGeometry x="310" y="530" width="160" height="70" as="geometry" />
        </mxCell>
        <mxCell id="p-kOWp8Kr_RvIh3Eu6UM-26" style="edgeStyle=orthogonalEdgeStyle;rounded=0;orthogonalLoop=1;jettySize=auto;html=1;" parent="WIyWlLk6GJQsqaUBKTNV-1" source="p-kOWp8Kr_RvIh3Eu6UM-23" target="p-kOWp8Kr_RvIh3Eu6UM-27" edge="1">
          <mxGeometry relative="1" as="geometry">
            <mxPoint x="230" y="760" as="targetPoint" />
          </mxGeometry>
        </mxCell>
        <mxCell id="p-kOWp8Kr_RvIh3Eu6UM-23" value="&lt;font style=&quot;font-size: 9px;&quot;&gt;Does the player want&amp;nbsp;&lt;/font&gt;&lt;div&gt;&lt;font style=&quot;font-size: 9px;&quot;&gt;to repair the drone?&lt;/font&gt;&lt;/div&gt;" style="rhombus;whiteSpace=wrap;html=1;" parent="WIyWlLk6GJQsqaUBKTNV-1" vertex="1">
          <mxGeometry x="325" y="650" width="130" height="70" as="geometry" />
        </mxCell>
        <mxCell id="p-kOWp8Kr_RvIh3Eu6UM-28" style="edgeStyle=orthogonalEdgeStyle;rounded=0;orthogonalLoop=1;jettySize=auto;html=1;" parent="WIyWlLk6GJQsqaUBKTNV-1" source="p-kOWp8Kr_RvIh3Eu6UM-27" target="p-kOWp8Kr_RvIh3Eu6UM-30" edge="1">
          <mxGeometry relative="1" as="geometry">
            <mxPoint x="215" y="970" as="targetPoint" />
          </mxGeometry>
        </mxCell>
        <mxCell id="p-kOWp8Kr_RvIh3Eu6UM-27" value="&lt;font style=&quot;font-size: 11px;&quot;&gt;Does the player have diagnostic tool?&lt;/font&gt;" style="rhombus;whiteSpace=wrap;html=1;" parent="WIyWlLk6GJQsqaUBKTNV-1" vertex="1">
          <mxGeometry x="140" y="740" width="150" height="100" as="geometry" />
        </mxCell>
        <mxCell id="p-kOWp8Kr_RvIh3Eu6UM-29" value="Uses the diagnostic tool" style="text;html=1;align=center;verticalAlign=middle;resizable=0;points=[];autosize=1;strokeColor=none;fillColor=none;" parent="WIyWlLk6GJQsqaUBKTNV-1" vertex="1">
          <mxGeometry x="155" y="878" width="150" height="30" as="geometry" />
        </mxCell>
        <mxCell id="p-kOWp8Kr_RvIh3Eu6UM-31" style="edgeStyle=orthogonalEdgeStyle;rounded=0;orthogonalLoop=1;jettySize=auto;html=1;entryX=0.5;entryY=1;entryDx=0;entryDy=0;" parent="WIyWlLk6GJQsqaUBKTNV-1" source="p-kOWp8Kr_RvIh3Eu6UM-30" target="p-kOWp8Kr_RvIh3Eu6UM-32" edge="1">
          <mxGeometry relative="1" as="geometry">
            <mxPoint x="410" y="930" as="targetPoint" />
          </mxGeometry>
        </mxCell>
        <mxCell id="p-kOWp8Kr_RvIh3Eu6UM-30" value="&lt;font style=&quot;font-size: 10px;&quot;&gt;drone is repaired, roadway&amp;nbsp;&lt;/font&gt;&lt;div&gt;&lt;font style=&quot;font-size: 10px;&quot;&gt;is unblocked and +20 score.&lt;/font&gt;&lt;/div&gt;" style="shape=parallelogram;perimeter=parallelogramPerimeter;whiteSpace=wrap;html=1;fixedSize=1;" parent="WIyWlLk6GJQsqaUBKTNV-1" vertex="1">
          <mxGeometry x="142.5" y="970" width="145" height="70" as="geometry" />
        </mxCell>
        <mxCell id="p-kOWp8Kr_RvIh3Eu6UM-34" style="edgeStyle=orthogonalEdgeStyle;rounded=0;orthogonalLoop=1;jettySize=auto;html=1;entryX=0.5;entryY=0;entryDx=0;entryDy=0;" parent="WIyWlLk6GJQsqaUBKTNV-1" source="p-kOWp8Kr_RvIh3Eu6UM-32" target="p-kOWp8Kr_RvIh3Eu6UM-35" edge="1">
          <mxGeometry relative="1" as="geometry">
            <mxPoint x="480" y="720" as="targetPoint" />
          </mxGeometry>
        </mxCell>
        <mxCell id="p-kOWp8Kr_RvIh3Eu6UM-32" value="arrives at the&amp;nbsp;&lt;div&gt;docking bay&lt;/div&gt;" style="shape=parallelogram;perimeter=parallelogramPerimeter;whiteSpace=wrap;html=1;fixedSize=1;" parent="WIyWlLk6GJQsqaUBKTNV-1" vertex="1">
          <mxGeometry x="350" y="850" width="120" height="60" as="geometry" />
        </mxCell>
        <mxCell id="p-kOWp8Kr_RvIh3Eu6UM-33" value="Moves east again" style="text;html=1;align=center;verticalAlign=middle;resizable=0;points=[];autosize=1;strokeColor=none;fillColor=none;" parent="WIyWlLk6GJQsqaUBKTNV-1" vertex="1">
          <mxGeometry x="290" y="948" width="120" height="30" as="geometry" />
        </mxCell>
        <mxCell id="p-kOWp8Kr_RvIh3Eu6UM-36" style="edgeStyle=orthogonalEdgeStyle;rounded=0;orthogonalLoop=1;jettySize=auto;html=1;" parent="WIyWlLk6GJQsqaUBKTNV-1" source="p-kOWp8Kr_RvIh3Eu6UM-35" target="p-kOWp8Kr_RvIh3Eu6UM-38" edge="1">
          <mxGeometry relative="1" as="geometry">
            <mxPoint x="610" y="900" as="targetPoint" />
          </mxGeometry>
        </mxCell>
        <mxCell id="p-kOWp8Kr_RvIh3Eu6UM-35" value="Does the player&amp;nbsp;&lt;div&gt;pick up the crystal?&lt;/div&gt;" style="rhombus;whiteSpace=wrap;html=1;" parent="WIyWlLk6GJQsqaUBKTNV-1" vertex="1">
          <mxGeometry x="570" y="700" width="140" height="100" as="geometry" />
        </mxCell>
        <mxCell id="p-kOWp8Kr_RvIh3Eu6UM-37" value="pick up crystal" style="text;html=1;align=center;verticalAlign=middle;resizable=0;points=[];autosize=1;strokeColor=none;fillColor=none;" parent="WIyWlLk6GJQsqaUBKTNV-1" vertex="1">
          <mxGeometry x="630" y="818" width="100" height="30" as="geometry" />
        </mxCell>
        <mxCell id="p-kOWp8Kr_RvIh3Eu6UM-39" style="edgeStyle=orthogonalEdgeStyle;rounded=0;orthogonalLoop=1;jettySize=auto;html=1;" parent="WIyWlLk6GJQsqaUBKTNV-1" source="p-kOWp8Kr_RvIh3Eu6UM-38" target="p-kOWp8Kr_RvIh3Eu6UM-41" edge="1">
          <mxGeometry relative="1" as="geometry">
            <mxPoint x="490" y="1040" as="targetPoint" />
          </mxGeometry>
        </mxCell>
        <mxCell id="p-kOWp8Kr_RvIh3Eu6UM-38" value="&amp;nbsp; crystal is removed and score +50." style="shape=parallelogram;perimeter=parallelogramPerimeter;whiteSpace=wrap;html=1;fixedSize=1;" parent="WIyWlLk6GJQsqaUBKTNV-1" vertex="1">
          <mxGeometry x="550" y="918" width="120" height="60" as="geometry" />
        </mxCell>
        <mxCell id="p-kOWp8Kr_RvIh3Eu6UM-40" value="status" style="text;html=1;align=center;verticalAlign=middle;resizable=0;points=[];autosize=1;strokeColor=none;fillColor=none;" parent="WIyWlLk6GJQsqaUBKTNV-1" vertex="1">
          <mxGeometry x="520" y="978" width="60" height="30" as="geometry" />
        </mxCell>
        <mxCell id="p-kOWp8Kr_RvIh3Eu6UM-45" style="edgeStyle=orthogonalEdgeStyle;rounded=0;orthogonalLoop=1;jettySize=auto;html=1;entryX=0.5;entryY=0;entryDx=0;entryDy=0;" parent="WIyWlLk6GJQsqaUBKTNV-1" source="p-kOWp8Kr_RvIh3Eu6UM-41" target="p-kOWp8Kr_RvIh3Eu6UM-43" edge="1">
          <mxGeometry relative="1" as="geometry" />
        </mxCell>
        <mxCell id="p-kOWp8Kr_RvIh3Eu6UM-41" value="Score: 80 Hazards: 1" style="rounded=0;whiteSpace=wrap;html=1;" parent="WIyWlLk6GJQsqaUBKTNV-1" vertex="1">
          <mxGeometry x="430" y="1040" width="120" height="60" as="geometry" />
        </mxCell>
        <mxCell id="p-kOWp8Kr_RvIh3Eu6UM-48" style="edgeStyle=orthogonalEdgeStyle;rounded=0;orthogonalLoop=1;jettySize=auto;html=1;entryX=0.5;entryY=0;entryDx=0;entryDy=0;" parent="WIyWlLk6GJQsqaUBKTNV-1" source="p-kOWp8Kr_RvIh3Eu6UM-43" target="p-kOWp8Kr_RvIh3Eu6UM-49" edge="1">
          <mxGeometry relative="1" as="geometry">
            <mxPoint x="330" y="1149.9999999999998" as="targetPoint" />
            <Array as="points" />
          </mxGeometry>
        </mxCell>
        <mxCell id="p-kOWp8Kr_RvIh3Eu6UM-43" value="show final&amp;nbsp;&lt;div&gt;summary and&amp;nbsp;&lt;/div&gt;&lt;div&gt;bonus +30.&lt;/div&gt;" style="shape=parallelogram;perimeter=parallelogramPerimeter;whiteSpace=wrap;html=1;fixedSize=1;" parent="WIyWlLk6GJQsqaUBKTNV-1" vertex="1">
          <mxGeometry x="270" y="1070" width="120" height="60" as="geometry" />
        </mxCell>
        <mxCell id="p-kOWp8Kr_RvIh3Eu6UM-47" value="win" style="text;html=1;align=center;verticalAlign=middle;resizable=0;points=[];autosize=1;strokeColor=none;fillColor=none;" parent="WIyWlLk6GJQsqaUBKTNV-1" vertex="1">
          <mxGeometry x="350" y="1018" width="40" height="30" as="geometry" />
        </mxCell>
        <mxCell id="p-kOWp8Kr_RvIh3Eu6UM-49" value="End" style="ellipse;whiteSpace=wrap;html=1;" parent="WIyWlLk6GJQsqaUBKTNV-1" vertex="1">
          <mxGeometry x="270" y="1160" width="120" height="80" as="geometry" />
        </mxCell>
      </root>
    </mxGraphModel>
  </diagram>
</mxfile>
